<svg width="166.000000" height="25.000000" viewBox="0 0 166 25" fill="none" xmlns="http://www.w3.org/2000/svg" xmlns:xlink="http://www.w3.org/1999/xlink">
	<desc>
			Created with Pixso.
	</desc>
	<defs/>
	<path id="Vector" d="M33.5 3.96L32.79 3.02C32.7 2.9 32.57 2.8 32.42 2.76C32.08 2.66 31.17 2.52 30.7 2.5C30.62 2.49 30.54 2.47 30.47 2.42C30.4 2.38 30.34 2.32 30.3 2.25C29.86 1.57 28.3 -0.07 27.94 0C27.53 0.08 27.67 0.28 27.75 0.68C27.96 1.82 28.96 3.33 28.96 3.33C28.96 3.33 28.31 5.25 27.24 5.46C25.37 5.82 23.61 2.2 18.49 2.17C5.51 2.17 7.47 20.34 0.13 20.34C-0.44 20.34 -0.5 20.65 -0.5 20.72C-0.5 20.85 -0.57 21.16 0.5 21.16C8.69 21.16 9.87 10.62 12.13 10.62C12.96 10.62 12.89 13.13 12.89 13.96C12.89 18.35 11.1 19.33 11.1 20.59C11.1 21.07 11.38 21.41 12.04 21.72C13.73 22.52 18.5 24.09 19.75 24.09C21.01 24.09 17.71 21.53 16.8 21.53C15.89 21.53 13.88 21.25 13.88 19.94C13.88 18.48 20.02 15.79 20.02 12.64C21.58 12.64 22.92 12.45 24.09 12.14C24.32 12.71 24.72 13.72 24.79 14.13C24.86 14.46 24.67 15 24.15 15.1C23.64 15.2 22.67 15.9 22.73 16.21C22.79 16.52 23.56 16.79 24.07 16.69C24.58 16.59 25.83 16.19 25.99 15.01C26.07 14.44 26.45 12.19 26.88 10.98C28.98 9.75 30.27 8.03 31.29 6.54C31.33 6.48 31.38 6.43 31.44 6.4C31.5 6.36 31.57 6.33 31.64 6.32C32.04 6.21 32.45 6.15 32.86 6.15C33.54 6.15 34.15 6.42 34.54 6.42C35 6.42 35.25 5.86 35.25 5.6C35.25 4.86 33.5 3.96 33.5 3.96Z" fill="#2F76FF" fill-opacity="1.000000" fill-rule="evenodd"/>
	<path id="Vector" d="M45.38 22.03L45.25 19.54C45.63 19.6 46.04 19.63 46.48 19.63C47.35 19.63 47.93 19.41 48.24 18.96C48.54 18.52 48.69 17.78 48.69 16.76L48.69 1.07L51.88 1.07L51.88 16.55C51.88 17.53 51.79 18.36 51.61 19.03C51.44 19.71 51.14 20.28 50.72 20.75C50.3 21.23 49.75 21.58 49.06 21.79C48.37 22.01 47.51 22.12 46.49 22.12C46.06 22.12 45.69 22.09 45.38 22.03ZM64.5 17.26C63.47 18.1 62.13 18.52 60.46 18.52C58.79 18.52 57.44 18.1 56.42 17.26C55.4 16.43 54.9 15.2 54.9 13.59L54.9 5.41L57.98 5.41L57.98 13.47C57.98 14.43 58.18 15.13 58.57 15.56C58.98 15.98 59.62 16.2 60.49 16.2C61.35 16.2 61.98 15.99 62.37 15.57C62.76 15.14 62.96 14.44 62.96 13.47L62.96 5.41L66.03 5.41L66.03 13.59C66.03 15.2 65.52 16.42 64.5 17.26ZM68.84 18.27L68.84 5.41L71.32 5.41L71.67 7.04C71.83 6.85 71.98 6.68 72.12 6.53C72.27 6.37 72.47 6.2 72.72 6.01C72.97 5.82 73.24 5.66 73.52 5.53C73.81 5.41 74.16 5.3 74.58 5.22C75 5.13 75.45 5.09 75.92 5.09C76.95 5.09 77.76 5.3 78.37 5.71C78.99 6.12 79.42 6.61 79.67 7.16C80.13 6.5 80.73 5.99 81.46 5.63C82.19 5.27 83.01 5.09 83.91 5.09C85.38 5.09 86.46 5.51 87.15 6.34C87.84 7.18 88.19 8.41 88.19 10.05L88.19 18.27L85.11 18.27L85.11 10.97C85.11 9.71 84.97 8.8 84.69 8.25C84.42 7.69 83.89 7.41 83.11 7.41C81.92 7.41 81.06 7.95 80.54 9.02C80.32 9.5 80.17 10.07 80.09 10.74L80.09 18.27L77.02 18.27L77.02 10.83C77.02 9.68 76.87 8.82 76.57 8.26C76.26 7.7 75.71 7.42 74.92 7.42C74.27 7.42 73.71 7.58 73.24 7.91C72.77 8.24 72.42 8.67 72.18 9.2C72 9.99 71.91 10.93 71.91 12.03L71.91 18.27L68.84 18.27ZM91.22 23.62L91.22 5.41L93.86 5.41L94.19 7.21C94.61 6.53 95.16 6.01 95.86 5.64C96.56 5.26 97.34 5.08 98.2 5.08C99.25 5.08 100.18 5.37 100.98 5.96C101.78 6.54 102.39 7.34 102.8 8.36C103.22 9.36 103.42 10.5 103.42 11.77C103.42 13.76 102.94 15.39 101.97 16.64C101.01 17.89 99.71 18.52 98.06 18.52C97.25 18.52 96.51 18.36 95.85 18.04C95.19 17.71 94.64 17.27 94.2 16.71C94.26 17.84 94.29 18.47 94.29 18.61L94.29 23.47L91.22 23.62ZM97.41 16.18C98.32 16.18 99.04 15.79 99.56 15.03C100.09 14.26 100.36 13.17 100.36 11.75C100.36 10.31 100.09 9.22 99.56 8.5C99.03 7.77 98.29 7.41 97.35 7.41C95.32 7.41 94.29 8.79 94.27 11.55C94.27 13.14 94.53 14.31 95.05 15.06C95.58 15.8 96.37 16.18 97.41 16.18ZM110.04 18.51C108.14 18.51 106.62 18.18 105.48 17.53L105.8 15.23C106.31 15.51 106.97 15.76 107.77 15.99C108.56 16.21 109.29 16.32 109.94 16.32C110.62 16.32 111.15 16.19 111.52 15.94C111.91 15.68 112.1 15.31 112.11 14.82C112.11 14.37 111.93 14.02 111.57 13.76C111.22 13.51 110.55 13.19 109.55 12.8C109.2 12.68 108.98 12.6 108.88 12.56C107.69 12.1 106.84 11.59 106.31 11.02C105.79 10.45 105.53 9.69 105.53 8.72C105.53 7.55 105.95 6.65 106.8 6.03C107.65 5.4 108.83 5.09 110.34 5.09C111.98 5.09 113.42 5.4 114.66 6.01L113.9 8.13C112.68 7.56 111.51 7.28 110.4 7.28C109.78 7.28 109.3 7.38 108.95 7.59C108.61 7.8 108.43 8.11 108.43 8.53C108.43 8.93 108.6 9.24 108.94 9.47C109.27 9.69 109.93 9.97 110.9 10.33C110.93 10.34 111.04 10.38 111.21 10.44C111.38 10.5 111.51 10.55 111.61 10.59C112.78 11.02 113.65 11.54 114.21 12.14C114.76 12.73 115.04 13.51 115.04 14.47C115.03 15.75 114.59 16.75 113.72 17.45C112.86 18.15 111.63 18.51 110.04 18.51ZM117.47 18.27L117.47 0.66L120.54 0.46L120.54 4.18C120.54 4.36 120.53 4.85 120.5 5.67C120.48 6.49 120.47 6.9 120.47 6.92C121.49 5.7 122.86 5.09 124.59 5.09C126.02 5.09 127.14 5.5 127.93 6.33C128.72 7.15 129.12 8.41 129.12 10.12L129.12 18.27L126.05 18.27L126.05 10.46C126.05 9.41 125.88 8.64 125.55 8.14C125.21 7.65 124.64 7.41 123.84 7.41C123.15 7.41 122.54 7.58 122.01 7.93C121.48 8.28 121.08 8.72 120.82 9.27C120.63 9.99 120.54 10.92 120.54 12.08L120.54 18.27L117.47 18.27ZM135.55 18.52C134.35 18.52 133.39 18.19 132.64 17.53C131.91 16.87 131.54 15.92 131.54 14.68C131.54 13.34 131.98 12.35 132.85 11.72C133.73 11.07 135.05 10.66 136.81 10.49C137.05 10.45 137.31 10.42 137.6 10.39C137.88 10.36 138.19 10.33 138.54 10.3C138.89 10.27 139.17 10.24 139.37 10.22L139.37 9.54C139.37 8.76 139.2 8.19 138.84 7.84C138.48 7.48 137.93 7.3 137.2 7.3C136.15 7.3 134.86 7.59 133.32 8.18C133.31 8.16 133.19 7.8 132.94 7.11C132.69 6.43 132.56 6.08 132.55 6.06C134.06 5.41 135.7 5.09 137.47 5.09C139.2 5.09 140.46 5.47 141.25 6.22C142.04 6.97 142.43 8.19 142.43 9.88L142.43 18.27L140.16 18.27C140.15 18.24 140.06 17.98 139.9 17.49C139.74 17 139.66 16.73 139.66 16.7C139.02 17.33 138.39 17.79 137.77 18.08C137.16 18.37 136.42 18.52 135.55 18.52ZM136.38 16.34C137.09 16.34 137.71 16.17 138.23 15.84C138.76 15.49 139.14 15.08 139.36 14.6L139.36 12.11C139.34 12.11 139.13 12.13 138.74 12.16C138.36 12.19 138.15 12.21 138.12 12.21C136.88 12.32 135.97 12.55 135.39 12.91C134.82 13.27 134.53 13.85 134.53 14.64C134.53 15.19 134.69 15.61 135.01 15.91C135.33 16.19 135.78 16.34 136.38 16.34ZM145.53 18.27L145.53 5.41L148.11 5.41L148.51 7.37C149.35 6.02 150.57 5.35 152.17 5.35C152.51 5.35 152.78 5.36 152.99 5.39L152.94 7.96C152.63 7.91 152.31 7.89 151.97 7.89C150.84 7.89 149.99 8.19 149.43 8.79C148.88 9.39 148.6 10.22 148.6 11.29L148.6 18.27L145.53 18.27ZM160.69 18.52C158.63 18.52 157.01 17.92 155.86 16.74C154.71 15.54 154.14 13.9 154.14 11.8C154.14 9.75 154.68 8.12 155.77 6.92C156.85 5.71 158.33 5.1 160.2 5.09C161.97 5.09 163.35 5.64 164.32 6.75C165.31 7.86 165.8 9.33 165.8 11.16C165.8 11.3 165.79 11.51 165.79 11.81C165.79 12.11 165.79 12.32 165.79 12.46L157.23 12.46C157.26 13.67 157.59 14.6 158.21 15.26C158.84 15.92 159.71 16.25 160.81 16.25C162.22 16.25 163.56 15.88 164.86 15.15L165.29 17.32C164.01 18.12 162.47 18.52 160.69 18.52ZM157.29 10.53L162.91 10.53C162.91 9.49 162.67 8.68 162.19 8.12C161.72 7.56 161.06 7.28 160.21 7.28C159.42 7.28 158.76 7.55 158.21 8.1C157.67 8.64 157.36 9.46 157.29 10.53Z" fill="#122345" fill-opacity="1.000000" fill-rule="nonzero"/>
</svg>
